<?xml version="1.0" standalone="no"?>
<!DOCTYPE svg PUBLIC "-//W3C//DTD SVG 20010904//EN"
 "http://www.w3.org/TR/2001/REC-SVG-20010904/DTD/svg10.dtd">
<svg version="1.0" xmlns="http://www.w3.org/2000/svg"
 width="600.000000pt" height="600.000000pt" viewBox="0 0 600.000000 600.000000"
 preserveAspectRatio="xMidYMid meet">

<g transform="translate(0.000000,600.000000) scale(0.100000,-0.100000)"
fill="#c5c4db" stroke="none">
<path d="M2807 5380 c-153 -33 -314 -109 -381 -179 -28 -29 -28 -29 -120 -24
-208 13 -415 -48 -609 -178 -126 -85 -260 -250 -289 -355 -10 -35 -17 -43 -57
-59 -76 -31 -152 -80 -232 -149 -131 -111 -220 -238 -273 -386 -49 -136 -45
-325 11 -469 38 -98 37 -116 -13 -188 -58 -85 -84 -172 -84 -282 0 -127 30
-226 91 -303 l22 -26 -22 -31 c-12 -16 -33 -54 -46 -83 -63 -137 -30 -324 79
-447 18 -20 48 -58 66 -86 19 -27 48 -65 65 -85 20 -21 40 -62 53 -105 39
-131 111 -211 233 -262 54 -22 80 -26 169 -27 58 -1 116 2 130 6 22 6 29 0 60
-44 50 -73 233 -256 310 -310 182 -128 458 -245 705 -300 87 -19 129 -22 325
-22 253 0 328 11 530 80 242 83 409 168 554 283 73 59 211 203 265 277 l29 42
49 -10 c68 -13 202 -2 265 23 121 47 209 148 242 275 14 51 28 79 56 109 20
22 51 60 67 85 17 25 41 54 53 65 43 39 91 141 106 226 19 111 6 185 -48 275
l-40 66 21 27 c123 151 119 447 -8 605 -17 21 -31 47 -31 58 0 11 14 58 30
105 41 115 57 248 42 352 -35 248 -240 512 -493 634 -80 39 -88 45 -99 81 -15
51 -77 152 -132 217 -95 114 -313 244 -484 290 -62 17 -111 22 -227 24 l-148
2 -32 30 c-46 44 -104 78 -199 117 -180 74 -382 94 -561 56z m92 -1289 c14 -9
27 -24 31 -32 30 -63 40 -74 69 -76 28 -3 34 2 54 44 31 64 62 85 128 85 61
-1 92 -19 121 -72 27 -50 20 -151 -13 -187 -31 -33 -107 -71 -159 -79 -37 -6
-41 -9 -38 -33 5 -41 76 -62 208 -58 97 2 111 5 173 35 63 31 173 124 194 165
9 17 12 16 56 -8 l47 -26 -24 -48 c-82 -161 -72 -365 22 -464 54 -57 97 -72
207 -72 93 0 105 2 173 34 73 35 162 114 162 146 0 27 42 16 97 -26 45 -35 53
-47 53 -74 0 -17 3 -66 6 -107 6 -72 6 -76 -15 -83 -40 -12 -71 2 -71 33 0 15
5 33 11 39 16 16 3 60 -21 68 -10 3 -47 1 -82 -5 -84 -16 -141 -57 -169 -122
-9 -21 -28 -34 -88 -57 -94 -36 -349 -121 -363 -121 -24 0 -287 -123 -306
-143 -38 -42 -44 -64 -27 -97 18 -35 43 -50 83 -50 26 0 481 221 629 306 53
31 60 30 68 -6 12 -54 88 -126 187 -175 50 -25 108 -48 129 -51 29 -5 39 -12
41 -28 5 -32 74 -34 129 -4 168 92 161 89 218 84 60 -5 84 -23 131 -96 32 -50
60 -144 60 -203 0 -51 -27 -178 -52 -244 -26 -70 -139 -186 -221 -227 -63 -31
-106 -35 -269 -22 l-87 7 -7 -28 c-28 -128 -73 -217 -176 -344 -183 -228 -428
-373 -823 -489 -265 -78 -468 -78 -735 -3 -425 121 -679 277 -873 537 -68 92
-103 162 -128 256 l-17 65 -78 -3 c-44 -1 -110 -3 -149 -5 -60 -2 -78 2 -128
27 -74 36 -175 129 -210 194 -15 27 -36 89 -48 138 -29 124 -24 218 19 305 50
104 94 139 174 139 29 0 118 -40 185 -83 60 -38 143 -36 143 3 0 13 11 19 39
24 62 10 201 85 252 136 25 26 52 63 60 83 7 20 17 37 22 37 5 0 39 -17 75
-38 37 -21 187 -98 333 -171 262 -131 267 -133 301 -121 42 15 72 61 64 95
-10 38 -67 79 -182 129 -99 44 -243 96 -266 96 -4 0 -48 15 -96 33 -48 19
-122 46 -165 62 -63 22 -80 33 -88 54 -20 51 -90 109 -143 115 -11 2 -37 6
-57 10 -47 10 -79 -6 -79 -39 0 -13 4 -27 10 -30 15 -9 12 -51 -4 -64 -8 -7
-27 -11 -43 -9 -27 3 -28 5 -27 53 1 28 2 78 3 112 l1 63 51 40 c64 50 83 51
108 2 24 -47 70 -83 159 -125 61 -29 76 -32 162 -32 83 0 102 3 145 26 149 76
188 293 90 506 l-24 52 42 23 41 23 71 -71 c48 -48 93 -82 140 -105 62 -30 80
-34 167 -37 114 -4 203 16 213 48 9 28 1 37 -42 45 -48 9 -123 47 -149 77 -41
45 -48 134 -16 193 36 69 136 91 201 46z"/>
<path d="M1105 2628 c-29 -23 -55 -74 -55 -108 0 -11 9 -29 20 -40 25 -25 60
-26 60 -2 0 23 28 62 44 62 7 0 21 -18 31 -41 18 -39 18 -42 1 -93 -22 -64
-14 -84 44 -115 75 -39 95 -26 106 72 12 100 -52 232 -129 267 -55 25 -88 25
-122 -2z"/>
<path d="M4783 2639 c-42 -12 -98 -79 -124 -148 -17 -45 -20 -70 -16 -124 6
-73 18 -97 48 -97 23 0 89 34 101 52 12 20 9 66 -7 98 -13 26 -13 33 5 74 26
63 59 60 75 -7 8 -29 24 -34 56 -17 14 8 19 21 19 51 0 51 -23 95 -60 114 -32
17 -50 17 -97 4z"/>
<path d="M2199 2625 c-56 -30 -89 -103 -96 -215 -7 -108 8 -164 53 -207 52
-49 102 -59 162 -33 83 36 110 115 92 264 -13 111 -38 158 -95 186 -48 23 -80
25 -116 5z"/>
<path d="M3682 2619 c-55 -28 -77 -71 -93 -182 -21 -153 11 -242 99 -271 53
-18 92 -11 142 24 54 38 65 72 65 195 0 103 -2 113 -30 164 -49 89 -103 109
-183 70z"/>
<path d="M2983 2278 c2 -7 10 -13 17 -13 7 0 15 6 18 13 2 7 -5 12 -18 12 -13
0 -20 -5 -17 -12z"/>
<path d="M2875 2219 c-10 -15 1 -23 20 -15 9 3 13 10 10 16 -8 13 -22 13 -30
-1z"/>
<path d="M3096 2221 c-3 -5 1 -14 8 -20 16 -13 32 2 21 19 -8 12 -22 13 -29 1z"/>
<path d="M2643 2175 c-3 -9 -3 -18 0 -22 10 -10 37 6 37 22 0 20 -29 20 -37 0z"/>
<path d="M3322 2173 c4 -22 38 -30 38 -10 0 8 -7 18 -16 21 -23 9 -26 8 -22
-11z"/>
<path d="M2400 2140 c0 -5 5 -10 10 -10 6 0 10 5 10 10 0 6 -4 10 -10 10 -5 0
-10 -4 -10 -10z"/>
<path d="M2990 2140 c0 -5 5 -10 10 -10 6 0 10 5 10 10 0 6 -4 10 -10 10 -5 0
-10 -4 -10 -10z"/>
<path d="M3580 2140 c0 -5 5 -10 10 -10 6 0 10 5 10 10 0 6 -4 10 -10 10 -5 0
-10 -4 -10 -10z"/>
<path d="M2170 2090 c0 -5 5 -10 10 -10 6 0 10 5 10 10 0 6 -4 10 -10 10 -5 0
-10 -4 -10 -10z"/>
<path d="M3810 2090 c0 -5 5 -10 10 -10 6 0 10 5 10 10 0 6 -4 10 -10 10 -5 0
-10 -4 -10 -10z"/>
<path d="M2943 2069 c-106 -14 -187 -75 -176 -132 7 -34 24 -34 94 0 47 24 66
27 140 27 74 -1 94 -5 138 -27 65 -35 87 -35 94 -1 4 20 -3 36 -30 65 -51 57
-150 83 -260 68z"/>
<path d="M2500 2054 c0 -9 5 -14 12 -12 18 6 21 28 4 28 -9 0 -16 -7 -16 -16z"/>
<path d="M3470 2055 c0 -8 7 -15 15 -15 8 0 15 7 15 15 0 8 -7 15 -15 15 -8 0
-15 -7 -15 -15z"/>
<path d="M2750 2050 c0 -5 7 -10 15 -10 8 0 15 5 15 10 0 6 -7 10 -15 10 -8 0
-15 -4 -15 -10z"/>
<path d="M3226 2052 c-3 -6 -1 -14 5 -17 15 -10 25 3 12 16 -7 7 -13 7 -17 1z"/>
<path d="M2315 2000 c-3 -5 1 -10 9 -10 8 0 18 5 21 10 3 6 -1 10 -9 10 -8 0
-18 -4 -21 -10z"/>
<path d="M3652 1998 c5 -15 28 -18 29 -3 0 6 -7 12 -17 13 -10 3 -15 -1 -12
-10z"/>
<path d="M1996 1851 c-18 -20 -18 -23 -2 -63 96 -251 633 -538 1006 -538 221
0 498 94 729 247 195 130 329 304 275 357 -20 21 -15 21 -264 -17 -264 -41
-471 -57 -740 -57 -269 0 -476 16 -740 57 -253 39 -242 38 -264 14z m567 -151
c20 0 37 -2 37 -4 0 -5 -92 -180 -99 -189 -9 -9 -152 67 -218 116 -73 53 -85
70 -74 99 l9 24 154 -22 c84 -13 170 -23 191 -24z m1231 34 c16 -41 0 -60
-119 -141 -36 -24 -161 -93 -169 -93 -4 0 -80 140 -104 193 -2 4 14 7 35 7 28
1 273 35 344 49 4 0 10 -6 13 -15z m-834 -214 l0 -159 -32 5 c-93 16 -142 27
-230 54 -53 17 -99 34 -102 39 -3 4 23 56 57 114 l62 107 123 0 122 0 0 -160z
m388 54 c34 -58 60 -110 57 -115 -11 -17 -308 -99 -361 -99 -2 0 -4 72 -4 160
l0 160 123 0 122 0 63 -106z"/>
</g>
</svg>
