<?xml version="1.0" encoding="UTF-8" standalone="no"?>
<svg
   version="1.0"
   width="600.000000pt"
   height="600.000000pt"
   viewBox="0 0 600.000000 600.000000"
   preserveAspectRatio="xMidYMid meet"
   id="svg23"
   sodipodi:docname="avatar.svg"
   inkscape:version="1.4 (e7c3feb100, 2024-10-09)"
   xmlns:inkscape="http://www.inkscape.org/namespaces/inkscape"
   xmlns:sodipodi="http://sodipodi.sourceforge.net/DTD/sodipodi-0.dtd"
   xmlns="http://www.w3.org/2000/svg"
   xmlns:svg="http://www.w3.org/2000/svg">
  <defs
     id="defs23">
    <linearGradient
       id="swatch25">
      <stop
         style="stop-color:#7bc144;stop-opacity:1;"
         offset="0"
         id="stop25" />
      <stop
         style="stop-color:#7bc144;stop-opacity:1;"
         offset="1"
         id="stop26" />
    </linearGradient>
  </defs>
  <sodipodi:namedview
     id="namedview23"
     pagecolor="#505050"
     bordercolor="#ffffff"
     borderopacity="1"
     inkscape:showpageshadow="0"
     inkscape:pageopacity="0"
     inkscape:pagecheckerboard="1"
     inkscape:deskcolor="#505050"
     inkscape:document-units="pt"
     inkscape:zoom="0.98464619"
     inkscape:cx="383.89424"
     inkscape:cy="366.62915"
     inkscape:window-width="1920"
     inkscape:window-height="1080"
     inkscape:window-x="0"
     inkscape:window-y="0"
     inkscape:window-maximized="1"
     inkscape:current-layer="svg23"
     showguides="false" />
  <path
     id="path23"
     style="opacity:1;fill:#f8c9b8;fill-opacity:1;stroke:#000000;stroke-width:15.8;stroke-dasharray:none;stroke-opacity:1"
     inkscape:label="bottom-stroke"
     d="m 281.61719,187.05859 c -21.20786,0.65778 -19.25264,33.37664 0.25229,35.70784 19.48912,7.04717 -21.77676,11.33447 -28.69905,3.99595 -10.68954,-4.7652 -24.28934,-27.76323 -31.03069,-10.15743 9.315,16.37253 12.29823,43.72186 -7.58538,53.60307 -18.23465,7.04602 -37.40101,-3.59279 -48.10938,-17.49934 -15.89331,1.0014 -18.9481,25.39364 -10.51444,33.57298 13.03657,7.99232 2.20948,-18.38191 15.15049,-11.24833 14.25915,9.32761 12.56279,38.4941 -4.57961,44.95163 -11.33226,5.95594 -48.16043,-14.37403 -60.49787,2.49751 -16.534304,22.25854 -7.355733,57.33322 15.96588,71.1119 15.41122,6.98554 38.16691,-5.64769 41.2699,12.52784 13.84628,39.29131 52.59668,63.484 90.89446,74.7723 28.81092,10.53099 60.88195,11.33765 89.79205,0.71739 38.93304,-11.21953 78.0835,-35.24392 92.8657,-74.79367 2.60164,-19.76502 28.81968,-5.72686 43.38027,-14.75241 16.36753,-10.9528 23.64152,-31.57334 21.71272,-50.58826 -0.85625,-17.14552 -18.97752,-34.19251 -35.18417,-21.78704 -15.39297,15.65278 -69.5395,-19.1474 -47.68949,-41.32246 6.7407,-6.39776 16.8016,-9.74385 15.76221,2.39414 18.64639,20.99384 19.9532,-30.69821 0.48363,-24.65372 -15.81002,9.62834 -34.99913,23.34595 -53.83191,12.35356 -16.22661,-13.10786 -12.07365,-38.0709 -2.44042,-53.97571 -15.15389,-14.68529 -22.15526,13.4619 -37.79297,14.66211 -8.21642,3.91944 -43.48826,-0.82061 -21.89938,-6.83004 21.52891,-3.14651 16.87122,-40.78602 -5.40928,-34.65061 -8.9863,1.43224 -13.54599,23.05608 -20.0153,4.99825 -2.77894,-3.81728 -7.61278,-5.76765 -12.25026,-5.60745 z"
     sodipodi:nodetypes="cccccccccccccccccccccccccccc" />
  <path
     id="path42"
     style="fill:#25341e;stroke:#000000;stroke-width:8.7;stroke-dasharray:none;stroke-opacity:1"
     inkscape:label="hair"
     d="m 297.55664,57.130859 c -21.65764,0.387893 -43.12913,8.348064 -59.72852,22.279297 -19.45229,-1.9522 -39.38812,1.888441 -56.88289,10.559322 -15.30385,7.58987 -28.84211,19.164142 -37.6624,33.889032 -2.47985,4.11627 -4.57965,8.46237 -6.25744,12.96571 -12.71062,9.25614 -45.328719,35.06184 -52.062561,49.55797 -5.120286,10.9991 -7.675821,23.2761 -6.721251,35.40773 0.226521,2.75433 0.557566,5.52618 1.16262,8.21503 3.017815,4.54846 4.928865,9.93435 4.804743,15.43525 -0.09863,6.97702 -2.82193,13.53348 -5.340425,19.9264 -2.418629,6.03811 -4.782531,12.17635 -5.741122,18.64492 -1.314933,6.29656 -0.265848,12.82841 1.747527,18.8585 1.830111,5.74228 4.472998,11.22487 5.80086,17.12412 0.121672,0.58887 0.297737,1.50122 0.39171,2.22368 0.641332,4.23372 -0.132798,8.68594 -2.367985,12.35915 -0.932196,1.61105 -2.092803,3.07514 -3.326459,4.46405 -1.804022,6.77325 -1.664922,14.02358 0.332368,20.73761 2.626287,9.06511 7.963908,17.02596 13.60378,24.47724 3.500584,4.60223 7.183783,9.06203 10.702525,13.65038 3.08781,9.48699 7.44154,18.75528 14.09485,26.28331 5.11837,5.81641 11.89135,10.33249 19.50454,12.05063 2.59525,0.61982 5.26171,0.9241 7.93024,0.83701 7.83589,0.0258 15.74822,0.17606 23.48013,-1.294 3.19459,-0.70205 6.6203,-1.60904 8.92969,-4.08398 1.18097,-1.29875 1.78173,-3.15915 1.49336,-4.87813 -1.90326,-2.77026 -3.58494,-5.68898 -5.23055,-8.61188 -0.59658,-0.44305 -0.7244,-1.13611 -0.87414,-1.81859 -1.7372,-3.4437 -3.33757,-6.96723 -4.65039,-10.67187 -0.58401,-3.58702 -2.35473,-7.17873 -5.55127,-9.10699 -3.73037,-2.30282 -8.27945,-2.45709 -12.53697,-2.4427 -6.76018,0.0563 -13.64335,0.92872 -20.30396,-0.67151 -1.93807,-0.46606 -3.83479,-1.17222 -5.44052,-2.37759 -9.74797,-6.4808 -16.57812,-16.81895 -19.72869,-28.00675 -1.157072,-4.03107 -1.768027,-8.20271 -1.985462,-12.38665 -0.06797,-1.02342 -0.03946,-2.36129 0.0037,-3.45017 0.03426,-1.06106 0.114705,-2.12938 0.205117,-3.26432 0.655415,-6.69534 2.588305,-13.43389 6.540755,-18.95235 1.85272,-2.48726 4.07993,-4.82584 6.95966,-6.10386 2.93677,-1.48768 6.29038,-1.67981 9.51971,-1.78674 8.53809,-0.0233 16.87466,2.08346 25.20048,3.71497 4.9027,0.93026 9.87475,1.98793 14.89305,1.65969 1.84676,-0.10103 3.62904,-0.65048 5.28821,-1.44496 5.75469,-2.39167 10.01575,-7.5033 12.30001,-13.20169 2.93223,-7.29028 3.3113,-15.64799 0.8136,-23.11817 -1.56882,-4.69265 -4.55591,-9.01116 -8.79471,-11.65566 -1.28779,-0.95916 -2.33393,-2.34455 -3.92954,-2.81275 -2.46657,0.62391 -5.06378,1.52602 -6.72656,3.56054 -3.3823,-10.48396 -6.75084,-20.97219 -10.1543,-31.44921 0.54162,-0.17654 1.09374,-0.31985 1.64844,-0.44922 5.36232,6.50721 11.88675,11.96077 18.73437,16.83789 7.77557,5.39093 16.17236,10.11188 25.3252,12.69155 5.69306,1.552 11.9059,2.2276 17.58496,0.25376 5.36343,-2.2841 9.46031,-7.0207 11.46125,-12.44411 2.54827,-6.78383 2.54322,-14.23162 1.59076,-21.32733 -1.25751,-8.83145 -4.0034,-17.44292 -7.94675,-25.43885 -0.41423,-0.81331 -0.8286,-1.62653 -1.27909,-2.42057 1.02176,-3.059 2.87436,-6.23692 6.0735,-7.36916 3.30321,-1.13104 6.85079,0.14781 9.70982,1.858 0.87442,0.52534 1.72223,1.11618 2.44653,1.67473 5.66153,4.42871 9.84737,10.46157 13.1473,16.78309 1.20715,2.33006 2.18281,4.77104 3.50282,7.0434 1.20474,2.25591 2.40936,4.51188 3.61417,6.76775 4.56575,2.00757 9.78788,2.42098 14.61389,1.16503 6.07876,-1.5652 11.61696,-5.23222 15.41736,-10.22948 0.73497,-0.98428 1.23212,-2.12289 2.25481,-2.85276 1.57091,-1.50519 3.39916,-2.7858 4.6866,-4.55935 0.46472,-0.72323 0.46588,-1.78632 -0.27279,-2.3222 -0.37432,-0.57586 -1.18976,-0.24737 -1.7674,-0.40739 -1.15792,-0.0857 -2.27177,-0.1859 -3.33602,-0.31795 -4.77351,-0.60508 -9.63604,-1.51032 -13.91665,-3.80744 -2.0463,-1.10997 -3.98826,-2.77881 -4.62121,-5.10205 -1.99265,-3.65627 -3.20876,-8.11929 -1.79213,-12.189 1.13155,-3.3276 4.18692,-5.61815 7.45291,-6.62269 2.21012,-0.71703 4.54471,-1.02502 6.86071,-1.0848 3.82819,0.0936 7.7364,1.74366 10.08203,4.8418 0.40513,0.9715 0.69831,2.0419 1.30273,2.89649 1.94301,1.9727 4.08082,4.20357 6.97745,4.55388 0.60542,0.064 1.0923,-0.55 1.60064,-0.84682 1.95723,-1.6218 3.50032,-3.68338 5.06493,-5.66221 0.39905,-0.81682 0.58098,-1.78229 1.3969,-2.30037 2.73,-2.49562 6.45808,-4.28787 10.2284,-3.66026 2.12888,0.40564 4.3253,0.86249 6.11699,2.16184 3.95761,2.72898 5.93825,7.54197 6.37251,12.19925 0.83101,4.28666 0.09,9.09218 -2.89154,12.4278 -1.48072,1.63896 -3.04002,3.28402 -5.06886,4.24579 -1.59648,0.86965 -3.39453,1.20363 -5.14845,1.57823 -1.80932,0.56111 -3.69283,1.1004 -5.27025,2.17207 -1.2464,0.9164 -2.01884,2.70488 -1.18926,4.14251 1.09478,1.85088 3.30636,2.55581 5.24609,3.15817 3.18999,0.90042 6.51504,1.19734 9.81047,1.42568 4.36816,0.25934 8.78953,0.067 13.08407,-0.79445 0.88862,-0.30555 1.76807,-0.56456 2.69887,-0.69922 2.66664,-0.63568 5.25302,-1.88674 7.20102,-3.84492 4.00426,-3.31079 7.74693,-6.93109 11.83466,-10.14276 2.38977,-2.18799 5.16108,-4.44935 8.55002,-4.589 1.17848,-0.25583 2.4505,0.005 3.3576,0.81638 1.18721,0.56893 2.29135,1.30416 3.28556,2.16622 -1.75959,3.45706 -3.54147,6.93178 -4.80335,10.62778 -1.51699,4.30315 -2.51167,8.78969 -3.05072,13.3174 -0.40202,4.15345 -0.28324,8.36558 0.4801,12.45584 0.83109,4.38521 2.48633,8.7166 5.13043,12.37487 2.19111,3.09349 5.13228,5.67607 8.4827,7.44394 5.24447,2.33252 11.28024,2.3721 16.74397,0.80619 7.53058,-2.11709 14.17222,-6.46622 20.45632,-10.99673 5.36976,-3.90637 10.47137,-8.16786 15.85742,-12.05273 6.34498,3.76054 12.28375,8.62322 16.06668,15.04912 2.57597,4.39224 4.08224,9.7609 2.7407,14.8023 -0.82665,3.27922 -3.30525,6.35581 -6.74945,7.01055 -1.83967,0.3911 -3.74473,0.0402 -5.48371,-0.60611 -2.65343,0.77412 -5.31459,-0.56923 -7.44171,-2.06202 -0.31969,-0.32396 0.32761,-0.91837 0.38693,-1.35437 0.0802,-0.51718 0.87891,-1.17266 0.27275,-1.55867 -2.41725,-2.30922 -4.66109,-4.90628 -7.59883,-6.57572 -1.00839,-0.52338 -2.18483,-0.8651 -3.31131,-0.73499 -3.50617,1.74358 -6.77801,4.05313 -9.3933,6.97847 -2.75783,3.62498 -4.01268,8.35168 -3.30599,12.86124 0.8988,6.01355 4.40085,11.28897 8.49436,15.63837 5.57257,5.84898 12.46524,10.38282 19.89905,13.50496 3.77606,0.92188 7.57471,1.77476 11.27539,2.9746 5.29351,-0.43176 10.3209,-2.28481 15.36914,-3.80664 3.547,-2.75376 8.10039,-4.4108 12.62047,-3.82847 1.56055,0.14715 3.05314,0.65358 4.53078,1.12887 3.42771,0.43332 6.57392,2.38871 8.54944,5.2112 1.05361,1.3774 1.7474,2.97697 2.51373,4.5148 2.75712,4.24617 4.40988,9.21355 4.61258,14.28037 0.25524,2.72767 0.29955,5.47274 0.173,8.20886 -0.0273,0.43244 -0.0754,1.23856 -0.11876,1.8144 -0.84678,10.44696 -4.45807,20.78212 -10.94569,29.07622 -0.64631,0.81372 -1.47551,1.81426 -2.24805,2.6543 -0.80091,0.87295 -1.85949,1.95207 -2.72867,2.73295 -1.48405,1.37047 -3.08609,2.64718 -4.68047,3.74726 -3.9596,2.70373 -8.88967,3.33643 -13.57101,3.5163 -6.37921,0.27715 -12.81455,-0.53625 -19.15227,0.47991 -3.66966,0.58064 -7.39698,2.24464 -9.49405,5.44303 -1.35803,1.96596 -2.01005,4.31725 -2.38057,6.64832 -0.69584,1.89929 -1.59314,3.72986 -2.3403,5.59836 -0.0722,1.78174 -1.05267,3.36558 -1.88312,4.89442 -1.3446,2.32957 -3.09278,4.38938 -4.43298,6.72039 -1.56837,2.47966 -3.21345,4.82688 -5.00257,7.18586 -0.73732,1.5881 -1.08145,3.69767 0.22461,5.09765 1.59323,1.64534 4.07337,1.69471 6.2148,1.68907 1.70801,0.005 3.40357,-0.31759 5.09766,-0.39462 10.61972,0.96384 21.47767,1.0676 31.90433,-1.44484 7.90699,-1.91101 15.56791,-5.64716 21.13975,-11.68606 2.46836,-2.6568 4.55224,-5.69376 6.09331,-8.97243 1.11119,-5.93285 3.76342,-11.46708 7.06577,-16.48018 0.63462,-0.96246 1.42796,-2.12409 2.15948,-3.13688 6.30495,-8.75755 13.99402,-16.61183 18.84002,-26.35111 1.73204,-3.42699 2.97674,-7.08893 3.7969,-10.83419 1.98671,-5.02821 1.98718,-10.65216 0.67459,-15.84755 -1.49156,-6.33733 -4.62903,-12.16394 -5.95787,-18.54469 -0.16345,-0.79201 -0.30379,-1.84678 -0.35101,-2.4887 -0.37584,-3.768 0.76748,-7.61483 3.06351,-10.61594 0.73017,-1.08336 1.73065,-1.96399 2.51462,-2.98758 2.90585,-5.41608 4.10147,-11.68309 3.54428,-17.79449 -0.73916,-8.67656 -4.27287,-16.74336 -7.23992,-24.82746 -1.93636,-5.33289 -3.8426,-10.9576 -3.97148,-16.75488 -0.004,-2.11083 0.0824,-4.28831 0.77845,-6.29515 4.61119,-11.6391 5.64403,-24.56615 3.44028,-36.85912 -3.00523,-16.90715 -11.61825,-32.59403 -23.54935,-44.85635 -2.97799,-3.024 -6.12245,-5.90998 -9.53105,-8.43851 -6.87528,-3.79849 -13.5459,-7.9092 -19.55324,-13.03537 -6.58909,-5.59139 -12.08358,-12.50123 -15.80466,-20.31475 -0.65029,-1.24874 -1.10022,-2.61188 -1.77444,-3.83539 -18.96314,-22.454796 -48.11475,-36.06278 -77.54742,-35.730614 -1.77191,-7.22e-4 -3.54909,0.130047 -5.31263,0.186017 -7.61966,-1.805006 -14.35149,-5.997307 -21.06015,-9.862438 -7.50163,-4.376674 -15.27853,-8.733388 -23.92453,-10.30415 -2.2327,-0.433471 -4.50948,-0.56228 -6.77281,-0.668429 -6.03607,-1.014483 -12.16169,-1.482972 -18.28188,-1.403837 z M 144.90625,257.41992 c 2.08632,7.41559 4.22259,14.81765 6.24219,22.25196 -2.84133,-1.9856 -5.53009,-4.30549 -7.34336,-7.30029 -3.67632,-5.87081 -4.89886,-13.41812 -2.64567,-20.03384 0.37695,-1.06711 0.84593,-2.10403 1.42653,-3.07603 0.77344,2.7194 1.54687,5.4388 2.32031,8.1582 z"
     sodipodi:nodetypes="sccccccccccccccccccccccccccccccccccccccccccccccccccccccccccccccccccccccccccccccccccccccccccccccccccccccccccccccccccccccccccccccccccccccccccccccccccccccccccccccccccccccccsscccccc" />
  <path
     id="path1"
     style="opacity:1;fill:#f8c9b8;fill-opacity:1;stroke:#000000;stroke-width:9.1;stroke-dasharray:none;stroke-opacity:1"
     inkscape:label="skin"
     d="m 281.61719,187.05859 c -21.20786,0.65778 -21.54169,25.02835 0.25229,35.70784 19.48912,7.04717 -21.10351,21.43321 -28.69905,3.99595 -10.82419,-24.82804 -30.75254,-34.89968 -36.41669,-16.48598 9.315,16.37253 17.68423,50.05041 -2.19938,59.93162 -18.23465,7.04602 -50.3274,-15.98058 -61.03577,-29.88713 -18.79095,3.33897 -18.86922,28.14473 -6.05582,38.41873 19.36511,15.93667 10.67725,-10.83987 23.61826,-3.70629 14.25915,9.32761 12.56279,38.4941 -4.57961,44.95163 -11.33226,5.95594 -48.16043,-14.37403 -60.49787,2.49751 -16.534304,22.25854 -7.355733,57.33322 15.96588,71.1119 15.41122,6.98554 38.16691,-5.64769 41.2699,12.52784 13.84628,39.29131 52.59668,63.484 90.89446,74.7723 28.81092,10.53099 60.88195,11.33765 89.79205,0.71739 38.93304,-11.21953 78.0835,-35.24392 92.8657,-74.79367 2.60164,-19.76502 28.81968,-5.72686 43.38027,-14.75241 16.36753,-10.9528 23.64152,-31.57334 21.71272,-50.58826 -0.85625,-17.14552 -18.97752,-34.19251 -35.18417,-21.78704 -15.39297,15.65278 -69.5395,-19.1474 -47.68949,-41.32246 6.7407,-6.39776 7.84738,-5.50238 15.76221,2.39414 18.64639,20.99384 38.71772,-12.48698 1.54169,-33.77642 -15.33874,10.77286 -36.05719,32.46865 -54.88997,21.47626 -16.22661,-13.10786 -12.07365,-38.0709 -2.44042,-53.97571 -15.15389,-14.68529 -22.15526,13.4619 -37.79297,14.66211 -8.21642,3.91944 -43.48826,-0.82061 -21.89938,-6.83004 21.52891,-3.14651 16.87122,-40.78602 -5.40928,-34.65061 -8.9863,1.43224 -13.54599,23.05608 -20.0153,4.99825 -2.77894,-3.81728 -7.61278,-5.76765 -12.25026,-5.60745 z"
     sodipodi:nodetypes="cccccccccccccccccccccccccccc" />
  <path
     d="m 397.73291,413.21338 c -2.53027,-0.17871 -8.1709,0.71142 -23.7334,3.08642 -26.4,4.1 -47.09951,5.69971 -73.99951,5.69971 -26.9,0 -47.59951,-1.59971 -73.99951,-5.69971 -25.3,-3.9 -24.20088,-3.80039 -26.40088,-1.40039 -1.8,2 -1.79922,2.3003 -0.19922,6.3003 9.6,25.1 63.29961,53.80078 100.59961,53.80078 22.1,0 49.79941,-9.4002 72.89941,-24.7002 19.5,-13 32.90098,-30.3997 27.50098,-35.6997 -0.75,-0.7875 -1.14932,-1.27998 -2.66748,-1.38721 z"
     style="fill:#000000;fill-opacity:1;stroke:#257325;stroke-width:0;stroke-dasharray:none;stroke-opacity:0.65203"
     id="path26"
     inkscape:label="mouth-outline" />
  <path
     style="fill:#4a2b1a;fill-opacity:1;stroke:#257325;stroke-width:0;stroke-dasharray:none;stroke-opacity:0.65203"
     d="m 401.44482,289.47803 c -10.18367,3.80794 -33.29979,11.52246 -34.64502,11.52246 -2.4,0 -28.69912,12.2998 -30.59912,14.2998 -3.8,4.2 -4.40117,6.4002 -2.70117,9.7002 1.8,3.5 4.29981,4.99951 8.29981,4.99951 2.6,0 48.10039,-22.10059 62.90039,-30.60059 0.42455,-0.24832 0.65306,-0.34368 1.02099,-0.55078 -0.0995,-1.60349 -0.50686,-3.56744 -1.54687,-5.78613 -0.74098,-1.58075 -1.70574,-2.73646 -2.72901,-3.58447 z"
     id="path41"
     inkscape:label="eyebrow-r" />
  <path
     style="fill:#4a2b1a;fill-opacity:1;stroke:#257325;stroke-width:0;stroke-dasharray:none;stroke-opacity:0.65203"
     d="m 193.56738,287.31885 c -2.53462,5.26645 -0.82827,10.58569 -0.77343,10.75342 1.38201,0.69236 3.14118,1.64009 5.00537,2.72753 3.7,2.1 18.70029,9.80059 33.30029,17.10059 26.2,13.1 26.70107,13.29961 30.10107,12.09961 4.2,-1.5 7.19991,-6.09951 6.39991,-9.49951 -1,-3.8 -6.70069,-7.90088 -18.20069,-12.90088 -9.9,-4.4 -24.3001,-9.59912 -26.6001,-9.59912 -0.4,0 -4.79912,-1.50029 -9.59912,-3.30029 -4.8,-1.9 -12.2,-4.60069 -16.5,-6.20069 -1.25899,-0.43965 -2.21214,-0.81215 -3.1333,-1.18066 z"
     id="path40"
     inkscape:label="eyebrow-l" />
  <path
     d="m 110.5,337.2 c -2.9,2.3 -5.5,7.4 -5.5,10.8 0,1.1 0.9,2.9 2,4 2.5,2.5 6,2.6 6,0.2 0,-2.3 2.8,-6.2 4.4,-6.2 4.76194,2.56316 7.58185,6.66291 3.2,13.4 -2.2,6.4 -1.4,8.4 4.4,11.5 7.5,3.9 9.5,2.6 10.6,-7.2 1.2,-10 -5.2,-23.2 -12.9,-26.7 -5.5,-2.5 -8.8,-2.5 -12.2,0.2 z"
     id="path2"
     style="fill:#080808;fill-opacity:1;stroke:#257325;stroke-width:0;stroke-dasharray:none;stroke-opacity:0.65203"
     inkscape:label="ear-l"
     sodipodi:nodetypes="csssscccsc" />
  <path
     d="m 478.3,336.1 c -4.2,1.2 -9.8,7.9 -12.4,14.8 -1.7,4.5 -2,7 -1.6,12.4 0.6,7.3 1.8,9.7 4.8,9.7 2.3,0 8.9,-3.4 10.1,-5.2 1.2,-2 -3.96652,-5.63695 -4.76704,-9.12395 -0.82873,-3.60987 -0.40284,-5.30505 1.39716,-9.40505 2.6,-6.3 9.06988,-4.671 10.66988,2.029 0.8,2.9 2.4,3.4 5.6,1.7 1.4,-0.8 1.9,-2.1 1.9,-5.1 0,-5.1 -2.3,-9.5 -6,-11.4 -3.2,-1.7 -5,-1.7 -9.7,-0.4 z"
     id="path3"
     style="fill:#000000;fill-opacity:1;stroke:#257325;stroke-width:0;stroke-dasharray:none;stroke-opacity:0.65203"
     inkscape:label="ear-r"
     sodipodi:nodetypes="cccscscccscc" />
  <path
     d="m 219.9,337.5 c -5.6,3 -8.9,10.3 -9.6,21.5 -0.7,10.8 0.8,16.4 5.3,20.7 5.2,4.9 10.2,5.9 16.2,3.3 8.3,-3.6 11,-11.5 9.2,-26.4 -1.3,-11.1 -3.8,-15.8 -9.5,-18.6 -4.8,-2.3 -8,-2.5 -11.6,-0.5 z"
     id="path4"
     style="fill:#4a2b1a;fill-opacity:1;stroke:#257325;stroke-width:0;stroke-dasharray:none;stroke-opacity:0.65203"
     inkscape:label="eye-l" />
  <path
     d="m 368.2,338.1 c -5.5,2.8 -7.7,7.1 -9.3,18.2 -2.1,15.3 1.1,24.2 9.9,27.1 5.3,1.8 9.2,1.1 14.2,-2.4 5.4,-3.8 6.5,-7.2 6.5,-19.5 0,-10.3 -0.2,-11.3 -3,-16.4 -4.9,-8.9 -10.3,-10.9 -18.3,-7 z"
     id="path5"
     style="fill:#4a2b1a;fill-opacity:1;stroke:#257325;stroke-width:0;stroke-dasharray:none;stroke-opacity:0.65203"
     inkscape:label="eye-r" />
  <path
     d="m 294.3,393.1 c -10.6,1.4 -18.7,7.5 -17.6,13.2 0.7,3.4 2.4,3.4 9.4,0 4.7,-2.4 6.6,-2.7 14,-2.7 7.4,0.1 9.4,0.5 13.8,2.7 6.5,3.5 8.7,3.5 9.4,0.1 0.4,-2 -0.3,-3.6 -3,-6.5 -5.1,-5.7 -15,-8.3 -26,-6.8 z"
     id="path16"
     style="fill:#000000;fill-opacity:1;stroke:#257325;stroke-width:0;stroke-dasharray:none;stroke-opacity:0.65203"
     inkscape:label="nose" />
  <g
     id="g41"
     inkscape:label="teeth">
    <path
       d="m 221.79932,425.39941 -0.89942,2.40088 c -1.1,2.9 0.10039,4.59942 7.40039,9.89942 6.6,4.9 20.89981,12.50009 21.79981,11.60009 0.7,-0.9 9.89941,-18.39941 9.89941,-18.89941 0,-0.2 -1.70019,-0.3999 -3.70019,-0.3999 -2.1,-0.1 -10.69864,-1.10088 -19.09864,-2.40088 z"
       style="fill:#eeeeee;fill-opacity:1;stroke:#257325;stroke-width:0;stroke-dasharray:none;stroke-opacity:0.65203"
       id="path30"
       inkscape:label="tooth-1" />
    <path
       d="m 271.5,432 -6.20068,10.70068 c -3.4,5.8 -5.99971,10.99942 -5.69971,11.39942 0.3,0.5 4.89971,2.19941 10.19971,3.89941 8.8,2.7 13.70097,3.80088 23.00097,5.40088 l 3.19922,0.49951 V 448.00049 432 h -12.19922 z"
       style="fill:#eeeeee;fill-opacity:1;stroke:#257325;stroke-width:0;stroke-dasharray:none;stroke-opacity:0.65203"
       id="path29"
       inkscape:label="tooth-2" />
    <path
       d="m 378.09961,425.10059 c -7.1,1.4 -31.59893,4.7999 -34.39893,4.8999 -2.1,0 -3.70097,0.30019 -3.50097,0.70019 2.4,5.3 10.00039,19.29932 10.40039,19.29932 0.8,0 13.2999,-6.90029 16.8999,-9.30029 11.9,-8.1 13.50039,-9.99912 11.90039,-14.09912 -0.3,-0.9 -0.90078,-1.5 -1.30078,-1.5 z"
       style="fill:#eeeeee;fill-opacity:1;stroke:#257325;stroke-width:0;stroke-dasharray:none;stroke-opacity:0.65203"
       id="path28"
       inkscape:label="tooth-4" />
    <path
       d="m 304.00049,432 v 16.00049 c 0,8.8 0.1999,15.99902 0.3999,15.99902 5.3,0 34.99961,-8.19941 36.09961,-9.89941 0.3,-0.5 -2.29971,-5.70049 -5.69971,-11.50049 L 328.5,432 h -12.20068 z"
       style="fill:#eeeeee;fill-opacity:1;stroke:#257325;stroke-width:0;stroke-dasharray:none;stroke-opacity:0.65203"
       id="path27"
       inkscape:label="tooth-3" />
  </g>
  <g
     id="g30"
     style="fill:#4a2b1a;fill-opacity:1;stroke:#257325;stroke-width:0;stroke-dasharray:none;stroke-opacity:0.65203"
     transform="matrix(0.1,0,0,-0.1,0,600)"
     inkscape:label="dots">
    <path
       d="m 2983,2278 c 2,-7 10,-13 17,-13 7,0 15,6 18,13 2,7 -5,12 -18,12 -13,0 -20,-5 -17,-12 z"
       id="path6"
       style="fill:#4a2b1a;fill-opacity:1;stroke:#257325;stroke-width:0;stroke-dasharray:none;stroke-opacity:0.65203"
       inkscape:label="dot-16" />
    <path
       d="m 2875,2219 c -10,-15 1,-23 20,-15 9,3 13,10 10,16 -8,13 -22,13 -30,-1 z"
       id="path7"
       style="fill:#4a2b1a;fill-opacity:1;stroke:#257325;stroke-width:0;stroke-dasharray:none;stroke-opacity:0.65203"
       inkscape:label="dot-15" />
    <path
       d="m 3096,2221 c -3,-5 1,-14 8,-20 16,-13 32,2 21,19 -8,12 -22,13 -29,1 z"
       id="path8"
       style="fill:#4a2b1a;fill-opacity:1;stroke:#257325;stroke-width:0;stroke-dasharray:none;stroke-opacity:0.65203"
       inkscape:label="dot-14" />
    <path
       d="m 2643,2175 c -3,-9 -3,-18 0,-22 10,-10 37,6 37,22 0,20 -29,20 -37,0 z"
       id="path9"
       style="fill:#4a2b1a;fill-opacity:1;stroke:#257325;stroke-width:0;stroke-dasharray:none;stroke-opacity:0.65203"
       inkscape:label="dot-13" />
    <path
       d="m 3322,2173 c 4,-22 38,-30 38,-10 0,8 -7,18 -16,21 -23,9 -26,8 -22,-11 z"
       id="path10"
       style="fill:#4a2b1a;fill-opacity:1;stroke:#257325;stroke-width:0;stroke-dasharray:none;stroke-opacity:0.65203"
       inkscape:label="dot-12" />
    <path
       d="m 2400,2140 c 0,-5 5,-10 10,-10 6,0 10,5 10,10 0,6 -4,10 -10,10 -5,0 -10,-4 -10,-10 z"
       id="path11"
       style="fill:#4a2b1a;fill-opacity:1;stroke:#257325;stroke-width:0;stroke-dasharray:none;stroke-opacity:0.65203"
       inkscape:label="dot-11" />
    <path
       d="m 2990,2140 c 0,-5 5,-10 10,-10 6,0 10,5 10,10 0,6 -4,10 -10,10 -5,0 -10,-4 -10,-10 z"
       id="path12"
       style="fill:#4a2b1a;fill-opacity:1;stroke:#257325;stroke-width:0;stroke-dasharray:none;stroke-opacity:0.65203"
       inkscape:label="dot-10" />
    <path
       d="m 3580,2140 c 0,-5 5,-10 10,-10 6,0 10,5 10,10 0,6 -4,10 -10,10 -5,0 -10,-4 -10,-10 z"
       id="path13"
       style="fill:#4a2b1a;fill-opacity:1;stroke:#257325;stroke-width:0;stroke-dasharray:none;stroke-opacity:0.65203"
       inkscape:label="dot-9" />
    <path
       d="m 2170,2090 c 0,-5 5,-10 10,-10 6,0 10,5 10,10 0,6 -4,10 -10,10 -5,0 -10,-4 -10,-10 z"
       id="path14"
       style="fill:#4a2b1a;fill-opacity:1;stroke:#257325;stroke-width:0;stroke-dasharray:none;stroke-opacity:0.65203"
       inkscape:label="dot-8" />
    <path
       d="m 3810,2090 c 0,-5 5,-10 10,-10 6,0 10,5 10,10 0,6 -4,10 -10,10 -5,0 -10,-4 -10,-10 z"
       id="path15"
       style="fill:#4a2b1a;fill-opacity:1;stroke:#257325;stroke-width:0;stroke-dasharray:none;stroke-opacity:0.65203"
       inkscape:label="dot-7" />
    <path
       d="m 2500,2054 c 0,-9 5,-14 12,-12 18,6 21,28 4,28 -9,0 -16,-7 -16,-16 z"
       id="path17"
       style="fill:#4a2b1a;fill-opacity:1;stroke:#257325;stroke-width:0;stroke-dasharray:none;stroke-opacity:0.65203"
       inkscape:label="dot-6" />
    <path
       d="m 3470,2055 c 0,-8 7,-15 15,-15 8,0 15,7 15,15 0,8 -7,15 -15,15 -8,0 -15,-7 -15,-15 z"
       id="path18"
       style="fill:#4a2b1a;fill-opacity:1;stroke:#257325;stroke-width:0;stroke-dasharray:none;stroke-opacity:0.65203"
       inkscape:label="dot-5" />
    <path
       d="m 2750,2050 c 0,-5 7,-10 15,-10 8,0 15,5 15,10 0,6 -7,10 -15,10 -8,0 -15,-4 -15,-10 z"
       id="path19"
       style="fill:#4a2b1a;fill-opacity:1;stroke:#257325;stroke-width:0;stroke-dasharray:none;stroke-opacity:0.65203"
       inkscape:label="dot-4" />
    <path
       d="m 3226,2052 c -3,-6 -1,-14 5,-17 15,-10 25,3 12,16 -7,7 -13,7 -17,1 z"
       id="path20"
       style="fill:#4a2b1a;fill-opacity:1;stroke:#257325;stroke-width:0;stroke-dasharray:none;stroke-opacity:0.65203"
       inkscape:label="dot-3" />
    <path
       d="m 2315,2000 c -3,-5 1,-10 9,-10 8,0 18,5 21,10 3,6 -1,10 -9,10 -8,0 -18,-4 -21,-10 z"
       id="path21"
       style="fill:#4a2b1a;fill-opacity:1;stroke:#257325;stroke-width:0;stroke-dasharray:none;stroke-opacity:0.65203"
       inkscape:label="dot-2" />
    <path
       d="m 3652,1998 c 5,-15 28,-18 29,-3 0,6 -7,12 -17,13 -10,3 -15,-1 -12,-10 z"
       id="path22"
       style="fill:#4a2b1a;fill-opacity:1;stroke:#257325;stroke-width:0;stroke-dasharray:none;stroke-opacity:0.65203"
       inkscape:label="dot-1" />
  </g>
</svg>
